<svg width="20" height="20" viewBox="0 0 20 20" fill="none" xmlns="http://www.w3.org/2000/svg">
<path d="M4.516 7.54794C4.952 7.10194 5.559 7.06694 6.092 7.54794L10 11.2949L13.908 7.54794C14.441 7.06694 15.049 7.10194 15.482 7.54794C15.918 7.99294 15.89 8.74494 15.482 9.16294C15.076 9.58094 10.787 13.6649 10.787 13.6649C10.6849 13.7708 10.5625 13.855 10.4271 13.9125C10.2917 13.97 10.1461 13.9996 9.999 13.9996C9.85191 13.9996 9.70633 13.97 9.57094 13.9125C9.43555 13.855 9.31314 13.7708 9.211 13.6649C9.211 13.6649 4.924 9.58094 4.516 9.16294C4.108 8.74494 4.08 7.99294 4.516 7.54794Z" fill="black"/>
</svg>
