<svg width="20" height="20" viewBox="0 0 20 20" fill="none" xmlns="http://www.w3.org/2000/svg">
<path d="M17.538 2.639C17.932 2.094 18 1 18 1H2C2 1 2.068 2.094 2.462 2.639L9 11V17H7C5 17 5 19 5 19H15C15 19 15 17 13 17H11V11L17.538 2.639ZM9.4 6C9.4 5.57565 9.56857 5.16869 9.86863 4.86863C10.1687 4.56857 10.5757 4.4 11 4.4C11.4243 4.4 11.8313 4.56857 12.1314 4.86863C12.4314 5.16869 12.6 5.57565 12.6 6C12.6 6.42435 12.4314 6.83131 12.1314 7.13137C11.8313 7.43143 11.4243 7.6 11 7.6C10.5757 7.6 10.1687 7.43143 9.86863 7.13137C9.56857 6.83131 9.4 6.42435 9.4 6Z" fill="black"/>
</svg>
