<svg width="20" height="20" viewBox="0 0 20 20" fill="none" xmlns="http://www.w3.org/2000/svg">
<path d="M17.561 2.43891C16.119 0.995906 15.036 1.21191 15.036 1.21191L8.984 7.26391L2.21 14.0369L1.2 18.7989L5.963 17.7889L12.737 11.0179L18.789 4.96591C18.788 4.96591 19.005 3.88291 17.561 2.43891ZM5.68 17.2169L4.056 17.5669C3.87641 17.2219 3.64355 16.9074 3.366 16.6349C3.0936 16.357 2.77907 16.1238 2.434 15.9439L2.784 14.3209L3.254 13.8519C3.254 13.8519 4.137 13.8699 5.135 14.8679C6.132 15.8639 6.151 16.7489 6.151 16.7489L5.68 17.2169Z" fill="black"/>
</svg>
