<svg width="20" height="20" viewBox="0 0 20 20" fill="none" xmlns="http://www.w3.org/2000/svg">
<path d="M17.691 4.72502C17.188 1.74802 14.471 -0.241983 11.622 0.284017C8.772 0.809017 6.366 3.10002 6.869 6.07902C6.976 6.72002 7.277 7.72302 7.632 8.44402L2.457 16.167C2.266 16.452 2.158 16.966 2.215 17.308L2.548 19.279C2.5597 19.359 2.58717 19.4358 2.6288 19.505C2.67044 19.5743 2.72541 19.6346 2.79054 19.6824C2.85566 19.7302 2.92964 19.7646 3.00817 19.7836C3.0867 19.8026 3.16822 19.8058 3.248 19.793L4.764 19.512C5.092 19.453 5.508 19.164 5.688 18.873L7.735 15.562L7.753 15.54L9.139 15.284L11.529 11.405C12.314 11.544 13.441 11.497 14.107 11.374C16.955 10.848 18.194 7.70402 17.691 4.72502ZM15.166 6.25202C14.382 7.42202 13.582 6.59802 12.463 5.77702C11.344 4.95902 10.328 4.45502 11.111 3.28502C11.895 2.11502 13.437 1.83002 14.558 2.65002C15.678 3.46902 15.949 5.08202 15.166 6.25202Z" fill="black"/>
</svg>
