<svg width="126" height="146" viewBox="0 0 126 146" fill="none" xmlns="http://www.w3.org/2000/svg">
<path d="M123.871 9.51426C62.8948 -3.3874 62.8948 -2.95359 1.91876 9.51426C-5.761 79.7633 8.6353 109.082 62.8948 146C116.866 108.156 132.217 82.3406 123.871 9.51426Z" fill="#E09CE7"/>
<path d="M91.2675 45.1463C92.745 43.1025 93 39 93 39H33C33 39 33.255 43.1025 34.7325 45.1463L59.25 76.5V99H51.75C44.25 99 44.25 106.5 44.25 106.5H81.75C81.75 106.5 81.75 99 74.25 99H66.75V76.5L91.2675 45.1463ZM60.75 57.75C60.75 56.1587 61.3821 54.6326 62.5074 53.5074C63.6326 52.3821 65.1587 51.75 66.75 51.75C68.3413 51.75 69.8674 52.3821 70.9926 53.5074C72.1179 54.6326 72.75 56.1587 72.75 57.75C72.75 59.3413 72.1179 60.8674 70.9926 61.9926C69.8674 63.1179 68.3413 63.75 66.75 63.75C65.1587 63.75 63.6326 63.1179 62.5074 61.9926C61.3821 60.8674 60.75 59.3413 60.75 57.75Z" fill="white"/>
</svg>
