<svg width="126" height="146" viewBox="0 0 126 146" fill="none" xmlns="http://www.w3.org/2000/svg">
<path fill-rule="evenodd" clip-rule="evenodd" d="M4.94217 8.89582C62.912 -2.96441 63.9196 -3.17056 123.871 9.51426C132.217 82.3406 116.866 108.156 62.8948 146C8.6353 109.082 -5.761 79.7633 1.91876 9.51426C2.94359 9.30471 3.9512 9.09856 4.94217 8.89582ZM101.3 28.85C101.3 28.85 100.97 34.1559 99.0593 36.7991L67.35 77.35V106.45H77.05C86.75 106.45 86.75 116.15 86.75 116.15H38.25C38.25 116.15 38.25 106.45 47.95 106.45H57.65V77.35L25.9407 36.7991C24.0298 34.1559 23.7 28.85 23.7 28.85H101.3ZM61.8629 47.6129C60.4076 49.0681 59.59 51.0419 59.59 53.1C59.59 55.1581 60.4076 57.1319 61.8629 58.5872C63.3181 60.0424 65.2919 60.86 67.35 60.86C69.4081 60.86 71.3819 60.0424 72.8371 58.5872C74.2924 57.1319 75.11 55.1581 75.11 53.1C75.11 51.0419 74.2924 49.0681 72.8371 47.6129C71.3819 46.1576 69.4081 45.34 67.35 45.34C65.2919 45.34 63.3181 46.1576 61.8629 47.6129Z" fill="black"/>
</svg>
