<svg width="20" height="20" viewBox="0 0 20 20" fill="none" xmlns="http://www.w3.org/2000/svg">
<path d="M10 1.6001C7.77219 1.6001 5.63561 2.4851 4.06031 4.0604C2.485 5.63571 1.60001 7.77228 1.60001 10.0001C1.60001 12.2279 2.485 14.3645 4.06031 15.9398C5.63561 17.5151 7.77219 18.4001 10 18.4001C12.2278 18.4001 14.3644 17.5151 15.9397 15.9398C17.515 14.3645 18.4 12.2279 18.4 10.0001C18.4 7.77228 17.515 5.63571 15.9397 4.0604C14.3644 2.4851 12.2278 1.6001 10 1.6001ZM15 11.0001H11V15.0001H9.00001V11.0001H5.00001V9.0001H9.00001V5.0001H11V9.0001H15V11.0001Z" fill="black"/>
</svg>
