<svg width="20" height="20" viewBox="0 0 20 20" fill="none" xmlns="http://www.w3.org/2000/svg">
<path d="M17.545 15.4671L13.766 11.6881C14.3551 10.7211 14.6659 9.61034 14.664 8.47807C14.664 5.06107 11.703 2.10107 8.28601 2.10107C7.47361 2.10094 6.66915 2.26086 5.91857 2.57169C5.16799 2.88252 4.486 3.33817 3.91155 3.91262C3.3371 4.48707 2.88145 5.16906 2.57062 5.91964C2.25979 6.67022 2.09987 7.47468 2.10001 8.28707C2.10001 11.7031 5.06101 14.6641 8.47701 14.6641C9.57196 14.6651 10.6473 14.3737 11.592 13.8201L15.391 17.6211C15.5697 17.7993 15.8117 17.8993 16.064 17.8993C16.3163 17.8993 16.5584 17.7993 16.737 17.6211L17.68 16.6781C18.051 16.3071 17.916 15.8381 17.545 15.4671ZM4.00401 8.28707C4.00361 7.7246 4.11409 7.16756 4.32913 6.64781C4.54417 6.12806 4.85955 5.65579 5.25723 5.25801C5.65492 4.86023 6.12711 4.54474 6.64681 4.32958C7.16651 4.11442 7.72353 4.00381 8.28601 4.00407C10.652 4.00407 12.76 6.11107 12.76 8.47807C12.7597 9.61391 12.3084 10.7032 11.5053 11.5063C10.7021 12.3095 9.61285 12.7608 8.47701 12.7611C6.11101 12.7601 4.00401 10.6521 4.00401 8.28707Z" fill="grey"/>
</svg>
