<svg width="20" height="20" viewBox="0 0 20 20" fill="none" xmlns="http://www.w3.org/2000/svg">
<path d="M3.38899 7.113L4.48999 18.021C4.55099 18.482 6.77699 19.998 9.99999 20C13.225 19.998 15.451 18.482 15.511 18.021L16.613 7.113C14.929 8.055 12.412 8.5 9.99999 8.5C7.58999 8.5 5.07199 8.055 3.38899 7.113ZM13.168 1.51L12.309 0.559C11.977 0.086 11.617 0 10.916 0H9.08499C8.38499 0 8.02399 0.086 7.69299 0.559L6.83399 1.51C4.26399 1.959 2.39999 3.15 2.39999 4.029V4.199C2.39999 5.746 5.80299 7 9.99999 7C14.198 7 17.601 5.746 17.601 4.199V4.029C17.601 3.15 15.738 1.959 13.168 1.51ZM12.07 4.34L11 3H8.99999L7.93199 4.34H6.23199C6.23199 4.34 8.09399 2.119 8.34299 1.818C8.53299 1.588 8.72699 1.5 8.97899 1.5H11.022C11.275 1.5 11.469 1.588 11.659 1.818C11.907 2.119 13.77 4.34 13.77 4.34H12.07Z" fill="salmon"/>
</svg>
